<mxfile host="app.diagrams.net" agent="Mozilla/5.0 (Windows NT 10.0; Win64; x64) AppleWebKit/537.36 (KHTML, like Gecko) Chrome/131.0.0.0 Safari/537.36" version="24.8.6">
  <diagram name="Halaman-1" id="_SG1ShwX3pmdfHbwFW69">
    <mxGraphModel dx="1000" dy="530" grid="1" gridSize="10" guides="1" tooltips="1" connect="1" arrows="1" fold="1" page="1" pageScale="1" pageWidth="827" pageHeight="1169" math="0" shadow="0">
      <root>
        <mxCell id="0" />
        <mxCell id="1" parent="0" />
        <mxCell id="KRCaQg-ymXRVWUEwnPy7-3" value="" style="edgeStyle=orthogonalEdgeStyle;rounded=0;orthogonalLoop=1;jettySize=auto;html=1;" edge="1" parent="1" source="KRCaQg-ymXRVWUEwnPy7-1" target="KRCaQg-ymXRVWUEwnPy7-2">
          <mxGeometry relative="1" as="geometry">
            <Array as="points">
              <mxPoint x="60" y="340" />
              <mxPoint x="60" y="340" />
            </Array>
          </mxGeometry>
        </mxCell>
        <mxCell id="KRCaQg-ymXRVWUEwnPy7-13" value="Tbl_Data Surat&lt;div&gt;Keluar&lt;/div&gt;" style="edgeLabel;html=1;align=center;verticalAlign=middle;resizable=0;points=[];" vertex="1" connectable="0" parent="KRCaQg-ymXRVWUEwnPy7-3">
          <mxGeometry x="-0.0916" relative="1" as="geometry">
            <mxPoint x="40" as="offset" />
          </mxGeometry>
        </mxCell>
        <mxCell id="KRCaQg-ymXRVWUEwnPy7-1" value="Tbl_Data Surat Keluar" style="shape=partialRectangle;whiteSpace=wrap;html=1;left=0;right=0;fillColor=none;" vertex="1" parent="1">
          <mxGeometry y="190" width="120" height="60" as="geometry" />
        </mxCell>
        <mxCell id="KRCaQg-ymXRVWUEwnPy7-18" style="edgeStyle=orthogonalEdgeStyle;rounded=0;orthogonalLoop=1;jettySize=auto;html=1;entryX=0;entryY=0.5;entryDx=0;entryDy=0;" edge="1" parent="1" source="KRCaQg-ymXRVWUEwnPy7-2" target="KRCaQg-ymXRVWUEwnPy7-15">
          <mxGeometry relative="1" as="geometry">
            <Array as="points">
              <mxPoint x="60" y="640" />
            </Array>
          </mxGeometry>
        </mxCell>
        <mxCell id="KRCaQg-ymXRVWUEwnPy7-19" value="Laporan Surat Keluar" style="edgeLabel;html=1;align=center;verticalAlign=middle;resizable=0;points=[];" vertex="1" connectable="0" parent="KRCaQg-ymXRVWUEwnPy7-18">
          <mxGeometry x="0.2338" y="-2" relative="1" as="geometry">
            <mxPoint x="17" y="-12" as="offset" />
          </mxGeometry>
        </mxCell>
        <mxCell id="KRCaQg-ymXRVWUEwnPy7-2" value="&lt;div&gt;4.3&lt;/div&gt;Laporan&lt;div&gt;Surat&lt;/div&gt;&lt;div&gt;Keluar&lt;/div&gt;" style="ellipse;whiteSpace=wrap;html=1;fillColor=none;" vertex="1" parent="1">
          <mxGeometry x="20" y="440" width="80" height="80" as="geometry" />
        </mxCell>
        <mxCell id="KRCaQg-ymXRVWUEwnPy7-7" value="" style="edgeStyle=orthogonalEdgeStyle;rounded=0;orthogonalLoop=1;jettySize=auto;html=1;" edge="1" source="KRCaQg-ymXRVWUEwnPy7-8" target="KRCaQg-ymXRVWUEwnPy7-9" parent="1">
          <mxGeometry relative="1" as="geometry" />
        </mxCell>
        <mxCell id="KRCaQg-ymXRVWUEwnPy7-14" value="&lt;div&gt;Tbl_Data Surat&lt;/div&gt;&lt;div&gt;Masuk&lt;/div&gt;" style="edgeLabel;html=1;align=center;verticalAlign=middle;resizable=0;points=[];" vertex="1" connectable="0" parent="KRCaQg-ymXRVWUEwnPy7-7">
          <mxGeometry x="-0.237" y="2" relative="1" as="geometry">
            <mxPoint x="38" y="27" as="offset" />
          </mxGeometry>
        </mxCell>
        <mxCell id="KRCaQg-ymXRVWUEwnPy7-8" value="Tbl_Data Surat Keluar" style="shape=partialRectangle;whiteSpace=wrap;html=1;left=0;right=0;fillColor=none;" vertex="1" parent="1">
          <mxGeometry x="200" y="190" width="120" height="60" as="geometry" />
        </mxCell>
        <mxCell id="KRCaQg-ymXRVWUEwnPy7-16" value="" style="edgeStyle=orthogonalEdgeStyle;rounded=0;orthogonalLoop=1;jettySize=auto;html=1;" edge="1" parent="1" source="KRCaQg-ymXRVWUEwnPy7-9" target="KRCaQg-ymXRVWUEwnPy7-15">
          <mxGeometry relative="1" as="geometry" />
        </mxCell>
        <mxCell id="KRCaQg-ymXRVWUEwnPy7-17" value="Laporan Surat&lt;div&gt;Masuk&lt;/div&gt;" style="edgeLabel;html=1;align=center;verticalAlign=middle;resizable=0;points=[];" vertex="1" connectable="0" parent="KRCaQg-ymXRVWUEwnPy7-16">
          <mxGeometry x="-0.2256" y="-1" relative="1" as="geometry">
            <mxPoint x="41" as="offset" />
          </mxGeometry>
        </mxCell>
        <mxCell id="KRCaQg-ymXRVWUEwnPy7-9" value="&lt;div&gt;4.2&lt;/div&gt;Laporan&lt;div&gt;Surat&lt;/div&gt;&lt;div&gt;Masuk&lt;/div&gt;" style="ellipse;whiteSpace=wrap;html=1;fillColor=none;" vertex="1" parent="1">
          <mxGeometry x="220" y="440" width="80" height="80" as="geometry" />
        </mxCell>
        <mxCell id="KRCaQg-ymXRVWUEwnPy7-10" value="" style="edgeStyle=orthogonalEdgeStyle;rounded=0;orthogonalLoop=1;jettySize=auto;html=1;" edge="1" source="KRCaQg-ymXRVWUEwnPy7-11" target="KRCaQg-ymXRVWUEwnPy7-12" parent="1">
          <mxGeometry relative="1" as="geometry" />
        </mxCell>
        <mxCell id="KRCaQg-ymXRVWUEwnPy7-24" value="Tbl_Data Hasil&lt;br&gt;Diposisi" style="edgeLabel;html=1;align=center;verticalAlign=middle;resizable=0;points=[];" vertex="1" connectable="0" parent="KRCaQg-ymXRVWUEwnPy7-10">
          <mxGeometry x="-0.3011" y="-1" relative="1" as="geometry">
            <mxPoint x="41" as="offset" />
          </mxGeometry>
        </mxCell>
        <mxCell id="KRCaQg-ymXRVWUEwnPy7-11" value="Tbl_Data Surat Keluar" style="shape=partialRectangle;whiteSpace=wrap;html=1;left=0;right=0;fillColor=none;" vertex="1" parent="1">
          <mxGeometry x="440" y="190" width="120" height="60" as="geometry" />
        </mxCell>
        <mxCell id="KRCaQg-ymXRVWUEwnPy7-26" value="" style="edgeStyle=orthogonalEdgeStyle;rounded=0;orthogonalLoop=1;jettySize=auto;html=1;" edge="1" parent="1" source="KRCaQg-ymXRVWUEwnPy7-12" target="KRCaQg-ymXRVWUEwnPy7-25">
          <mxGeometry relative="1" as="geometry">
            <Array as="points">
              <mxPoint x="610" y="480" />
              <mxPoint x="610" y="480" />
            </Array>
          </mxGeometry>
        </mxCell>
        <mxCell id="KRCaQg-ymXRVWUEwnPy7-27" value="Laporan Hasil&lt;div&gt;Disposisi&lt;/div&gt;" style="edgeLabel;html=1;align=center;verticalAlign=middle;resizable=0;points=[];" vertex="1" connectable="0" parent="KRCaQg-ymXRVWUEwnPy7-26">
          <mxGeometry x="-0.0123" relative="1" as="geometry">
            <mxPoint y="-20" as="offset" />
          </mxGeometry>
        </mxCell>
        <mxCell id="KRCaQg-ymXRVWUEwnPy7-12" value="&lt;div&gt;4.1&lt;/div&gt;Laporan&lt;div&gt;Hasil&lt;/div&gt;&lt;div&gt;Disposisi&lt;/div&gt;" style="ellipse;whiteSpace=wrap;html=1;fillColor=none;" vertex="1" parent="1">
          <mxGeometry x="460" y="440" width="80" height="80" as="geometry" />
        </mxCell>
        <mxCell id="KRCaQg-ymXRVWUEwnPy7-15" value="Kepala&lt;div&gt;UPTD&lt;/div&gt;" style="whiteSpace=wrap;html=1;fillColor=none;" vertex="1" parent="1">
          <mxGeometry x="220" y="610" width="80" height="60" as="geometry" />
        </mxCell>
        <mxCell id="KRCaQg-ymXRVWUEwnPy7-20" style="edgeStyle=orthogonalEdgeStyle;rounded=0;orthogonalLoop=1;jettySize=auto;html=1;entryX=1.009;entryY=0.624;entryDx=0;entryDy=0;entryPerimeter=0;" edge="1" parent="1" source="KRCaQg-ymXRVWUEwnPy7-12" target="KRCaQg-ymXRVWUEwnPy7-15">
          <mxGeometry relative="1" as="geometry">
            <Array as="points">
              <mxPoint x="380" y="490" />
              <mxPoint x="380" y="647" />
            </Array>
          </mxGeometry>
        </mxCell>
        <mxCell id="KRCaQg-ymXRVWUEwnPy7-21" value="Laporan Hasil&lt;div&gt;Disposi&lt;/div&gt;" style="edgeLabel;html=1;align=center;verticalAlign=middle;resizable=0;points=[];" vertex="1" connectable="0" parent="KRCaQg-ymXRVWUEwnPy7-20">
          <mxGeometry x="0.0111" y="1" relative="1" as="geometry">
            <mxPoint x="36" y="1" as="offset" />
          </mxGeometry>
        </mxCell>
        <mxCell id="KRCaQg-ymXRVWUEwnPy7-22" style="edgeStyle=orthogonalEdgeStyle;rounded=0;orthogonalLoop=1;jettySize=auto;html=1;entryX=0.007;entryY=0.405;entryDx=0;entryDy=0;entryPerimeter=0;" edge="1" parent="1" source="KRCaQg-ymXRVWUEwnPy7-8" target="KRCaQg-ymXRVWUEwnPy7-12">
          <mxGeometry relative="1" as="geometry" />
        </mxCell>
        <mxCell id="KRCaQg-ymXRVWUEwnPy7-23" value="Tbl_Data&lt;div&gt;Masuk&lt;/div&gt;" style="edgeLabel;html=1;align=center;verticalAlign=middle;resizable=0;points=[];" vertex="1" connectable="0" parent="KRCaQg-ymXRVWUEwnPy7-22">
          <mxGeometry x="-0.2193" relative="1" as="geometry">
            <mxPoint x="24" y="-3" as="offset" />
          </mxGeometry>
        </mxCell>
        <mxCell id="KRCaQg-ymXRVWUEwnPy7-25" value="Administrasi&lt;div&gt;Surat&lt;/div&gt;&lt;div&gt;Tata&lt;/div&gt;&lt;div&gt;Usaha&lt;/div&gt;" style="whiteSpace=wrap;html=1;fillColor=none;" vertex="1" parent="1">
          <mxGeometry x="670" y="450" width="80" height="60" as="geometry" />
        </mxCell>
        <mxCell id="KRCaQg-ymXRVWUEwnPy7-28" style="edgeStyle=orthogonalEdgeStyle;rounded=0;orthogonalLoop=1;jettySize=auto;html=1;entryX=0.668;entryY=1.006;entryDx=0;entryDy=0;entryPerimeter=0;" edge="1" parent="1" source="KRCaQg-ymXRVWUEwnPy7-2" target="KRCaQg-ymXRVWUEwnPy7-25">
          <mxGeometry relative="1" as="geometry">
            <Array as="points">
              <mxPoint x="10" y="480" />
              <mxPoint x="10" y="730" />
              <mxPoint x="723" y="730" />
            </Array>
          </mxGeometry>
        </mxCell>
        <mxCell id="KRCaQg-ymXRVWUEwnPy7-29" value="Laporan Surat Keluar" style="edgeLabel;html=1;align=center;verticalAlign=middle;resizable=0;points=[];" vertex="1" connectable="0" parent="KRCaQg-ymXRVWUEwnPy7-28">
          <mxGeometry x="0.0411" y="-2" relative="1" as="geometry">
            <mxPoint y="-12" as="offset" />
          </mxGeometry>
        </mxCell>
      </root>
    </mxGraphModel>
  </diagram>
</mxfile>
